<svg id="Layer_1" data-name="Layer 1" xmlns="http://www.w3.org/2000/svg" viewBox="0 0 81.51 57.33"><defs><style>.cls-1{fill:#232323;}</style></defs><title>car</title><line class="cls-1" x1="33.36" y1="36.6" x2="33.92" y2="36.6"/><path class="cls-1" d="M5013.41,565.67l-10.47-1.11-0.25-.31c-0.83-1.05-3-3.8-5.57-6.56-4-4.36-7-6.79-9.17-7.42l-0.68-.2v-7.45a1.22,1.22,0,0,0-1.22-1.22h-14a1.22,1.22,0,0,0-1.22,1.22v7.47h-13.27a8.11,8.11,0,0,0-6.7,3.54l-5.68,8.28a1.22,1.22,0,0,0,.32,1.7,1.25,1.25,0,0,0,1.7-.32l5.68-8.28a5.68,5.68,0,0,1,4.69-2.47h29.19c0.7,0,2.92.69,8.56,6.82,1,1.11,2.1,2.34,3.2,3.66l4.39,4,10.22,1.09a5.56,5.56,0,0,1,5,5.54V578h-75.7l-0.93-6a1.22,1.22,0,1,0-2.42.38l1.87,12a7.71,7.71,0,0,0,7.66,6.55h1l0.16,0.75a8.82,8.82,0,0,0,17.26,0l0.16-.76h25.13l0.16,0.76a8.82,8.82,0,0,0,17.26,0l0.16-.76h2.64a8,8,0,0,0,8-8v-9.29A8,8,0,0,0,5013.41,565.67Zm-28.58-15.59H4973.3v-6.25h11.53v6.25Zm-35,37.71-0.18.72h-1.08a5.27,5.27,0,0,1-5.24-4.48l-0.56-3.6h14.48l-3.17,1.78A8.87,8.87,0,0,0,4949.87,587.79Zm8.56,8.48a6.38,6.38,0,0,1-6.37-6.37V589.8a6.4,6.4,0,0,1,6-6.25c0.22,0,.42,0,0.63,0a6.4,6.4,0,0,1,6,6v0.35A6.38,6.38,0,0,1,4958.43,596.28Zm34.15-8.48-0.18.72h-25.23l-0.18-.72a8.85,8.85,0,0,0-4.26-5.58l-3.17-1.78H5000l-3.17,1.78A8.88,8.88,0,0,0,4992.58,587.79Zm8.56,8.48a6.38,6.38,0,0,1-6.37-6.37V589.7a6.4,6.4,0,0,1,6-6.15h0.64a6.4,6.4,0,0,1,6.05,6.22v0.14A6.38,6.38,0,0,1,5001.13,596.28Zm17-13.33a5.58,5.58,0,0,1-5.57,5.57h-2.69l-0.18-.72a8.87,8.87,0,0,0-4.26-5.58l-3.17-1.78h15.87v2.51Z" transform="translate(-4939.07 -541.39)"/></svg>