<svg id="Layer_1" data-name="Layer 1" xmlns="http://www.w3.org/2000/svg" viewBox="0 0 48 48"><title>clock</title><path d="M4818,593.07a24,24,0,1,0,24,24,24,24,0,0,0-24-24h0Zm0,46.4a22.4,22.4,0,1,1,22.4-22.4,22.42,22.42,0,0,1-22.4,22.4h0Zm0,0" transform="translate(-4794 -593.07)"/><path d="M4818.8,613.89v-8.11a0.8,0.8,0,0,0-1.6,0v8.11a3.2,3.2,0,0,0-2.28,2.29h-5.71a0.8,0.8,0,1,0,0,1.6h5.71a3.19,3.19,0,1,0,3.89-3.89h0Zm-0.8,4.69a1.6,1.6,0,1,1,1.6-1.6,1.6,1.6,0,0,1-1.6,1.6h0Zm0,0" transform="translate(-4794 -593.07)"/></svg>