<svg id="Isolation_Mode" data-name="Isolation Mode" xmlns="http://www.w3.org/2000/svg" viewBox="0 0 58.12 78.37"><defs><style>.cls-1{fill:#441919;}</style></defs><title>microscope</title><path class="cls-1" d="M516,3139.84H459.86a1,1,0,0,1-1-1,9,9,0,0,1,9-9h9.51l0.89-6.2a26,26,0,0,1-5.55-41.89l-8.31-9.29a1,1,0,0,1,.08-1.41l10.42-9.33a1,1,0,0,1,.72-0.25,1,1,0,0,1,.69.33l26.75,29.9a1,1,0,0,1-.08,1.41l-10.42,9.33a1,1,0,0,1-.72.25,1,1,0,0,1-.69-0.33L474,3083.24a24,24,0,0,0,4.88,38.48,4.61,4.61,0,0,1,3.9-2.18h10a4.57,4.57,0,0,1,4.52,3.82l0.06,0.32a23.79,23.79,0,0,0,10.91-6.91l-7.32-7.32a1,1,0,0,1-.26-1l-5.23,4.68a1,1,0,1,1-1.33-1.49L511.63,3096a1,1,0,1,1,1.33,1.49l-11.42,10.22a1,1,0,0,1,.86.28l8,8a1,1,0,0,1,0,1.41,25.82,25.82,0,0,1-12.66,8.24l0.71,4.17H508a9,9,0,0,1,9,9A1,1,0,0,1,516,3139.84Zm-55-2h54a7,7,0,0,0-6.92-6H467.86A7,7,0,0,0,460.93,3137.84Zm18.46-8h17l-0.79-4.66h0a1,1,0,0,1,0-.16l-0.23-1.33h0a2.58,2.58,0,0,0-2.55-2.15h-10a2.6,2.6,0,0,0-2.56,2.22Zm-12.84-58L492,3100.28l8.93-8-25.42-28.41Z" transform="translate(-458.86 -3061.47)"/></svg>