<?xml version="1.0" encoding="UTF-8" standalone="no"?>
<!-- Created with Inkscape (http://www.inkscape.org/) -->

<svg
   xmlns:dc="http://purl.org/dc/elements/1.1/"
   xmlns:cc="http://creativecommons.org/ns#"
   xmlns:rdf="http://www.w3.org/1999/02/22-rdf-syntax-ns#"
   xmlns:svg="http://www.w3.org/2000/svg"
   xmlns="http://www.w3.org/2000/svg"
   xmlns:sodipodi="http://sodipodi.sourceforge.net/DTD/sodipodi-0.dtd"
   xmlns:inkscape="http://www.inkscape.org/namespaces/inkscape"
   id="svg2"
   version="1.1"
   inkscape:version="0.91 r13725"
   width="27.5"
   height="39.759525"
   viewBox="0 0 27.5 39.759525"
   sodipodi:docname="mouse.svg">
  <metadata
     id="metadata8">
    <rdf:RDF>
      <cc:Work
         rdf:about="">
        <dc:format>image/svg+xml</dc:format>
        <dc:type
           rdf:resource="http://purl.org/dc/dcmitype/StillImage" />
        <dc:title></dc:title>
      </cc:Work>
    </rdf:RDF>
  </metadata>
  <defs
     id="defs6" />
  <sodipodi:namedview
     pagecolor="#ffffff"
     bordercolor="#666666"
     borderopacity="1"
     objecttolerance="10"
     gridtolerance="10"
     guidetolerance="10"
     inkscape:pageopacity="0"
     inkscape:pageshadow="2"
     inkscape:window-width="1920"
     inkscape:window-height="1017"
     id="namedview4"
     showgrid="false"
     fit-margin-top="0"
     fit-margin-left="0"
     fit-margin-right="0"
     fit-margin-bottom="0"
     inkscape:zoom="5.9"
     inkscape:cx="18.135593"
     inkscape:cy="5.7918007"
     inkscape:window-x="1912"
     inkscape:window-y="-8"
     inkscape:window-maximized="1"
     inkscape:current-layer="svg2" />
  <path
     style="fill-opacity:1"
     d="M 7.2032127,37.944714 C 2.0499247,35.148569 0,30.013732 0,19.901449 0,9.6280272 2.0802337,4.5791192 7.4590837,1.7976082 c 4.6349203,-2.39681095 7.9469123,-2.39681095 12.5818323,0 C 25.419766,4.5791192 27.5,9.6280272 27.5,19.901449 c 0,10.273421 -2.080234,15.32233 -7.459084,18.103841 -4.55988,2.358005 -8.413775,2.33982 -12.8377033,-0.06058 z M 21.346154,33.747603 C 24.787131,30.306625 25,29.499964 25,19.901449 25,10.302934 24.787131,9.4962722 21.346154,6.0552952 c -4.912511,-4.912511 -10.279797,-4.912511 -15.1923083,0 -3.440977,3.440977 -3.653846,4.2476388 -3.653846,13.8461538 0,9.598515 0.212869,10.405176 3.653846,13.846154 2.493746,2.493746 4.9055333,3.653846 7.5961543,3.653846 2.690621,0 5.102408,-1.1601 7.596154,-3.653846 z M 11.5,17.151449 C 7.6129327,13.264382 11.53093,4.0036702 15.625,7.4014492 18.80582,10.041295 17.370795,18.651449 13.75,18.651449 c -0.4125,0 -1.425,-0.675 -2.25,-1.5 z m 3.5,-4.75 c 0,-2.0625 -0.5625,-3.7499998 -1.25,-3.7499998 -0.6875,0 -1.25,1.6874998 -1.25,3.7499998 0,2.0625 0.5625,3.75 1.25,3.75 0.6875,0 1.25,-1.6875 1.25,-3.75 z"
     id="path3406"
     inkscape:connector-curvature="0" />
</svg>
